<svg width="24" height="24" viewBox="0 0 24 24" fill="none" xmlns="http://www.w3.org/2000/svg">
<path d="M19.1719 6.42188L13.5938 12L19.1719 17.5781C19.6094 18.1094 19.6094 18.6406 19.1719 19.1719C18.6406 19.6094 18.1094 19.6094 17.5781 19.1719L12 13.5938L6.42188 19.1719C5.89062 19.6094 5.35938 19.6094 4.82812 19.1719C4.39062 18.6406 4.39062 18.1094 4.82812 17.5781L10.4062 12L4.82812 6.42188C4.39062 5.89063 4.39062 5.35937 4.82812 4.82812C5.35938 4.39063 5.89062 4.39063 6.42188 4.82812L12 10.4062L17.5781 4.82812C18.1094 4.39063 18.6406 4.39063 19.1719 4.82812C19.6094 5.35937 19.6094 5.89063 19.1719 6.42188Z" fill="black"/>
</svg>
