<svg width="27" height="23" viewBox="0 0 27 23" fill="none" xmlns="http://www.w3.org/2000/svg">
<g clip-path="url(#clip0_1439_4)">
<path d="M4.75 4.9375C4.80208 4.36458 5.11458 4.05208 5.6875 4H21.3125C21.8854 4.05208 22.1979 4.36458 22.25 4.9375C22.1979 5.51042 21.8854 5.82292 21.3125 5.875H5.6875C5.11458 5.82292 4.80208 5.51042 4.75 4.9375ZM4.75 11.1875C4.80208 10.6146 5.11458 10.3021 5.6875 10.25H21.3125C21.8854 10.3021 22.1979 10.6146 22.25 11.1875C22.1979 11.7604 21.8854 12.0729 21.3125 12.125H5.6875C5.11458 12.0729 4.80208 11.7604 4.75 11.1875ZM22.25 17.4375C22.1979 18.0104 21.8854 18.3229 21.3125 18.375H5.6875C5.11458 18.3229 4.80208 18.0104 4.75 17.4375C4.80208 16.8646 5.11458 16.5521 5.6875 16.5H21.3125C21.8854 16.5521 22.1979 16.8646 22.25 17.4375Z" fill="black"/>
</g>
<defs>
<clipPath id="clip0_1439_4">
<rect width="27" height="23" fill="white"/>
</clipPath>
</defs>
</svg>
