<svg width="24" height="24" viewBox="0 0 24 24" fill="none" xmlns="http://www.w3.org/2000/svg">
<path d="M17.5 5C17.9167 5 18.2708 5.14583 18.5625 5.4375C18.8542 5.72917 19 6.08333 19 6.5V17.5C19 17.9167 18.8542 18.2708 18.5625 18.5625C18.2708 18.8542 17.9167 19 17.5 19H13.2188V14.25H15.0312L15.375 12H13.2188V10.5312C13.1979 10.2188 13.2812 9.94792 13.4688 9.71875C13.6562 9.46875 13.9896 9.34375 14.4688 9.34375H15.4375V7.4375C15.4167 7.41667 15.2396 7.38542 14.9062 7.34375C14.5521 7.30208 14.1562 7.28125 13.7188 7.28125C12.8229 7.28125 12.1146 7.54167 11.5938 8.0625C11.0729 8.58333 10.8021 9.32292 10.7812 10.2812V12H8.8125V14.25H10.7812V19H6.5C6.08333 19 5.72917 18.8542 5.4375 18.5625C5.14583 18.2708 5 17.9167 5 17.5V6.5C5 6.08333 5.14583 5.72917 5.4375 5.4375C5.72917 5.14583 6.08333 5 6.5 5H17.5Z" fill="white"/>
</svg>
