<?xml version="1.0" encoding="UTF-8"?><svg id="Layer_1" xmlns="http://www.w3.org/2000/svg" viewBox="0 0 427.67 107.32"><defs><style>.cls-1{fill:#fff;}.cls-2{fill:#ffb1d5;}.cls-3{fill:red;}.cls-4{fill:#ff3c96;}.cls-5{fill:#2746f8;}</style></defs><path class="cls-3" d="M20.49,67.93l-10.93,8.5c-1.97,1.52-2.35,4.4-.76,6.37v.08l10.93-8.58c1.97-1.52,2.35-4.32,.76-6.37"/><path class="cls-3" d="M10.93,83.41c-1.97,1.59-2.35,4.48-.76,6.45,.15,.23,.38,.46,.61,.61,.15-.84,.61-1.52,1.29-2.13l5.69-4.48c1.97-1.59,2.35-4.48,.76-6.45l-7.59,6Z"/><path class="cls-3" d="M28.46,56.7c0-3.19-2.58-5.77-5.77-5.77h-4.4l1.82,2.28-1.82,2.28h4.33c.61,0,1.21,.46,1.21,1.14,0,.38-.15,.68-.38,.91l-15.25,11.92c-1.97,1.59-2.35,4.48-.76,6.45l18.82-14.72c1.37-.99,2.2-2.66,2.2-4.48"/><path class="cls-3" d="M2.35,61.25l6.75,5.31,3.72-2.96-7.82-6.07c-.23-.23-.46-.53-.38-.91,0-.61,.53-1.14,1.21-1.14h4.33l-1.82-2.28,1.82-2.28H5.77c-3.19,0-5.77,2.58-5.77,5.77,.08,1.82,.99,3.49,2.35,4.55"/><polygon class="cls-5" points="14.27 0 11.61 4.63 11.61 60.42 14.27 62.54 17 60.42 17 4.63 14.27 0"/><path class="cls-5" d="M16.01,95.63l.91-8.96-3.95,3.11c-.91,.68-1.29,1.82-1.14,2.81l.53,3.11c-.68,.53-1.14,1.44-1.14,2.35,0,1.67,1.37,3.04,3.04,3.04s3.04-1.37,3.04-3.04c0-.99-.53-1.9-1.29-2.43"/><path class="cls-5" d="M46.45,14.65h6.98l8.42,24.67h-6l-1.9-6.07h-7.97l-1.9,6.07h-5.92l8.27-24.67Zm5.92,13.66l-2.5-7.97-2.43,7.97h4.93Z"/><path class="cls-5" d="M83.19,25.58c-1.82,0-3.26,1.29-3.26,3.57v10.25h-5.39v-10.25c0-2.28-.99-3.57-2.73-3.57s-3.26,1.29-3.26,3.57v10.25h-5.39V21.02h5.39v2.12c1.29-1.74,3.19-2.66,5.16-2.66,2.43,0,4.25,1.06,5.24,3.04,1.37-1.97,3.57-3.04,6.15-3.04,3.87,0,6.22,2.73,6.22,7.52v11.31h-5.39v-10.25c0-2.2-.99-3.49-2.73-3.49"/><path class="cls-5" d="M93.36,30.21c0-6.38,4.63-9.64,9.26-9.64s9.33,3.34,9.33,9.64v1.67h-13.28c.53,2.2,2.28,3.19,4.1,3.19,1.37,0,2.13-.3,2.66-.99h6.22c-1.59,3.95-5.39,5.77-8.88,5.77-4.63,0-9.41-3.26-9.41-9.64m12.98-2.05c-.46-2.5-2.2-3.34-3.72-3.34-1.82,0-3.34,1.06-3.87,3.34h7.59Z"/><path class="cls-5" d="M114.08,21.02h5.39v2.2c1.37-1.74,3.34-2.5,5.54-2.5v5.16c-4.02-.83-5.54,.99-5.54,3.26v10.25h-5.39V21.02Z"/><path class="cls-5" d="M129.79,13.74c1.75,0,3.04,1.21,3.04,3.04s-1.29,3.04-3.04,3.04-3.04-1.21-3.04-3.04,1.21-3.04,3.04-3.04m-2.73,7.29h5.39v18.37h-5.39V21.02Z"/><path class="cls-5" d="M134.57,30.21c0-6.37,4.63-9.64,9.34-9.64,3.95,0,7.89,2.28,9.11,7.06h-5.84c-.68-1.44-1.9-2.05-3.26-2.05-2.28,0-3.72,1.67-3.72,4.63s1.44,4.63,3.72,4.63c1.52,0,2.58-.76,3.26-2.43h5.84c-1.14,5.01-5.09,7.44-9.11,7.44-4.71,0-9.34-3.26-9.34-9.64"/><path class="cls-5" d="M154.3,30.21c0-6.37,4.17-9.64,8.42-9.64,2.43,0,4.33,.84,5.69,2.35v-1.9h5.39v18.37h-5.39v-1.9c-1.37,1.52-3.26,2.35-5.69,2.35-4.25,0-8.42-3.26-8.42-9.64m9.87,4.63c2.58,0,4.25-1.67,4.25-4.63s-1.67-4.63-4.25-4.63-4.25,1.67-4.25,4.63,1.67,4.63,4.25,4.63"/><path class="cls-5" d="M185.57,25.58c-2.12,0-3.64,1.29-3.64,3.57v10.25h-5.39V21.02h5.39v2.2c1.37-1.74,3.34-2.66,5.54-2.66,4.02,0,6.53,2.73,6.53,7.51v11.31h-5.39v-10.25c.08-2.28-1.06-3.57-3.04-3.57"/><path class="cls-5" d="M37.8,57.38c0-7.74,5.47-12.83,12.3-12.83,5.84,0,10.7,3.64,11.99,9.49h-6.07c-.99-2.51-3.04-4.1-6-4.1-4.02,0-6.45,3.04-6.45,7.44s2.43,7.44,6.45,7.44c3.04,0,5.09-1.75,6-4.48h6c-1.21,6.07-6.07,9.87-11.99,9.87-6.75,.07-12.22-5.01-12.22-12.83"/><path class="cls-5" d="M63.6,60.57c0-6.37,4.17-9.64,8.42-9.64,2.43,0,4.33,.84,5.69,2.35v-1.9h5.39v18.37h-5.39v-1.9c-1.37,1.52-3.26,2.35-5.69,2.35-4.25,.08-8.42-3.26-8.42-9.64m9.87,4.71c2.58,0,4.25-1.67,4.25-4.63s-1.67-4.63-4.25-4.63-4.25,1.67-4.25,4.63c-.08,2.89,1.67,4.63,4.25,4.63"/><path class="cls-5" d="M94.87,55.94c-2.12,0-3.64,1.29-3.64,3.57v10.25h-5.39v-18.37h5.39v2.2c1.37-1.74,3.34-2.66,5.54-2.66,4.02,0,6.53,2.73,6.53,7.51v11.31h-5.39v-10.25c.08-2.28-1.14-3.57-3.04-3.57"/><path class="cls-5" d="M105.42,60.57c0-6.37,4.63-9.64,9.34-9.64,3.95,0,7.89,2.28,9.11,7.06h-5.84c-.68-1.44-1.9-2.05-3.26-2.05-2.28,0-3.72,1.67-3.72,4.63s1.44,4.63,3.72,4.63c1.52,0,2.58-.76,3.26-2.43h5.84c-1.14,5.01-5.09,7.44-9.11,7.44-4.78,.08-9.34-3.26-9.34-9.64"/><path class="cls-5" d="M125.16,60.57c0-6.38,4.63-9.64,9.26-9.64s9.34,3.34,9.34,9.64v1.67h-13.28c.53,2.2,2.28,3.19,4.1,3.19,1.37,0,2.13-.3,2.66-.99h6.22c-1.59,3.95-5.39,5.77-8.88,5.77-4.55,.07-9.41-3.26-9.41-9.64m13.05-2.05c-.46-2.5-2.2-3.34-3.72-3.34-1.82,0-3.34,1.06-3.87,3.34h7.59Z"/><path class="cls-5" d="M145.95,51.38h5.39v2.2c1.37-1.74,3.34-2.5,5.54-2.5v5.16c-4.02-.83-5.54,.99-5.54,3.26v10.25h-5.39v-18.37Z"/><path class="cls-5" d="M61.25,91.46c0-6.37,4.86-9.64,9.87-9.64s9.87,3.34,9.87,9.64-4.86,9.64-9.87,9.64-9.87-3.26-9.87-9.64m9.79,4.63c2.58,0,4.25-1.67,4.25-4.63s-1.67-4.63-4.25-4.63-4.25,1.67-4.25,4.63,1.67,4.63,4.25,4.63"/><path class="cls-5" d="M82.35,91.46c0-6.37,4.63-9.64,9.34-9.64,3.95,0,7.89,2.28,9.11,7.06h-5.84c-.68-1.44-1.9-2.05-3.26-2.05-2.28,0-3.72,1.67-3.72,4.63s1.44,4.63,3.72,4.63c1.52,0,2.58-.76,3.26-2.43h5.84c-1.14,5.01-5.09,7.44-9.11,7.44-4.71,0-9.34-3.26-9.34-9.64"/><path class="cls-5" d="M105.58,74.99c1.75,0,3.04,1.21,3.04,3.04s-1.29,3.04-3.04,3.04-3.04-1.21-3.04-3.04,1.21-3.04,3.04-3.04m-2.73,7.29h5.39v18.37h-5.39v-18.37Z"/><path class="cls-5" d="M110.28,91.46c0-6.38,4.63-9.64,9.26-9.64s9.34,3.34,9.34,9.64v1.67h-13.28c.53,2.2,2.28,3.19,4.1,3.19,1.37,0,2.13-.3,2.66-.99h6.22c-1.59,3.95-5.39,5.77-8.88,5.77-4.63,0-9.41-3.26-9.41-9.64m13.05-2.05c-.46-2.5-2.2-3.34-3.72-3.34-1.82,0-3.34,1.06-3.87,3.34h7.59Z"/><polygon class="cls-5" points="149.67 98.29 142.69 82.28 148.53 82.28 152.48 91.69 156.12 82.28 161.66 82.28 151.49 107.32 145.95 107.32 149.67 98.29"/><path class="cls-5" d="M53.13,85.99l-4.4-.99c-2.12-.53-2.35-1.44-2.35-2.2,0-1.44,1.29-2.35,3.34-2.35,2.58,0,3.57,1.37,4.02,2.58l.08,.3h5.84l-.08-.53c-.91-4.55-4.55-7.29-9.87-7.29s-9.11,3.26-9.11,7.82c0,3.64,2.2,6,6.45,6.98l4.33,.99c2.12,.46,2.58,1.29,2.58,2.28,0,1.59-1.37,2.58-3.57,2.58-1.59,0-3.64-.46-4.33-2.81l-.07-.3h-6l.08,.53c.84,4.78,4.78,7.59,10.4,7.59s9.34-3.19,9.34-7.89c0-3.72-2.35-6.3-6.68-7.29"/><path class="cls-5" d="M138.82,95.86c-.68,0-.99-.46-.99-1.14v-7.59h3.87v-4.78h-3.87v-6.53l-5.39,1.97v4.55h-2.73v4.78h2.73v7.59c0,3.49,2.81,5.92,6.37,5.92h3.34v-4.78h-3.34Z"/><path class="cls-5" d="M166.27,75.32c.46,.26,.82,.63,1.08,1.09,.26,.46,.39,.99,.39,1.56s-.13,1.1-.39,1.57c-.26,.47-.62,.84-1.08,1.1-.46,.26-.98,.4-1.56,.4s-1.11-.13-1.57-.4c-.46-.26-.82-.63-1.08-1.1-.26-.47-.39-.99-.39-1.57s.13-1.1,.39-1.56c.26-.46,.62-.83,1.08-1.09,.46-.26,.98-.4,1.57-.4s1.1,.13,1.56,.4m.19,4.44c.44-.46,.67-1.05,.67-1.78s-.22-1.32-.67-1.78c-.44-.46-1.02-.69-1.74-.69s-1.31,.23-1.74,.69c-.43,.46-.65,1.05-.65,1.78s.22,1.32,.65,1.78c.44,.46,1.02,.69,1.74,.69s1.3-.23,1.74-.69m-.58-1.81c-.12,.17-.3,.28-.52,.35l.84,1.24h-.95s-.72-1.18-.72-1.18h-.25v1.2h-.78v-3.22h1.44c.34,0,.61,.09,.82,.27,.2,.18,.31,.42,.31,.73,0,.24-.06,.44-.19,.61m-1.59-.23h.61c.11,0,.2-.03,.28-.09,.07-.06,.11-.14,.11-.25s-.04-.19-.11-.25c-.08-.06-.17-.08-.28-.08h-.61v.67Z"/><polygon class="cls-4" points="398.72 100.64 427.67 21.09 228.34 21.09 199.38 100.64 398.72 100.64"/><path class="cls-2" d="M379.23,69.15l.34,.28c2.82,2.32,6.63,5.5,7.48,10.38,3.73-5.17,7.14-9.4,9.62-11.93,0,0,.2-.19,.34-.32-1.7-2.6-4.24-4.37-7.36-5.1,0,0-.18-.06-.18-.06l-1-.34,.79-.78,5.07-4.96c3.03-3.36,8.24-9.99,9.02-16.58,.4-3.4-.21-6.06-1.79-7.92-2.57-3.02-6.9-3.17-9.25-2.99-6.65,.51-10.82,3.81-13.39,6.26-3.82,3.55-6.24,8.16-6.81,12.97-.66,5.59,1.12,12.21,4.75,17.73l.4,.61-.6,.37c-5.14,3.14-10.6,5.26-15.8,6.13-.94,2.16-2.09,4.21-3.36,5.98,6.7-1.43,14.03-4.65,21.23-9.34l.5-.37Zm5.95-9.61c-6.63-3.71-7.49-8.96-7.05-12.71,.1-.85,.28-1.71,.53-2.56,1.61-5.49,5.22-9.21,9.69-9.96,2.2-.37,4.26,.29,5.65,1.81,1.08,1.17,2.27,3.42,1.79,7.47-.83,7.13-6.09,12.48-9.97,15.88l-.3,.27-.34-.19Z"/><g><path class="cls-1" d="M263.29,28.76l-4.18,23.27h-5.76l2.53-13.95-7.82,13.95h-4.65l-2.83-14.02-2.49,14.02h-5.76l4.18-23.27h6.8l3.77,16.11,9.43-16.11h6.77Z"/><path class="cls-1" d="M277.88,47.92h-8.83l-2.16,4.11h-6.03l12.73-23.27h6.67l4.38,23.27h-6.1l-.67-4.11Zm-.67-4.31l-1.38-8.62-4.51,8.62h5.9Z"/><path class="cls-1" d="M299.44,40.16l7.38,11.87h-7.04l-6.1-10.28-1.85,10.28h-5.76l4.18-23.27h5.76l-1.82,10.21,9.73-10.21h6.74l-11.22,11.4Z"/><path class="cls-1" d="M317.35,28.76l-4.18,23.27h-5.76l4.18-23.27h5.76Z"/><path class="cls-1" d="M338.16,52.03h-5.76l-7.04-14.35-2.59,14.35h-5.76l4.18-23.27h5.76l7.04,14.42,2.59-14.42h5.76l-4.18,23.27Z"/><path class="cls-1" d="M345.2,34.21c1.34-1.8,3-3.2,5-4.21s4.17-1.51,6.5-1.51c2.83,0,5.1,.67,6.82,2.02,1.72,1.35,2.66,3.21,2.81,5.6h-6.33c-.29-.77-.8-1.36-1.53-1.77-.73-.41-1.62-.61-2.68-.61-1.86,0-3.46,.6-4.8,1.81-1.34,1.2-2.18,2.81-2.54,4.82-.11,.66-.17,1.24-.17,1.72,0,1.63,.48,2.89,1.45,3.78,.97,.88,2.34,1.33,4.11,1.33,1.44,0,2.71-.36,3.81-1.08,1.1-.72,1.99-1.74,2.66-3.07h-7.28l.71-4.14h12.53l-.94,5.27c-.67,1.41-1.63,2.73-2.88,3.94-1.25,1.22-2.72,2.2-4.43,2.95s-3.55,1.13-5.52,1.13-3.83-.39-5.37-1.18c-1.54-.78-2.72-1.88-3.54-3.3s-1.23-3.06-1.23-4.94c0-.64,.08-1.45,.24-2.42,.4-2.3,1.27-4.35,2.61-6.15Z"/></g><g><path class="cls-1" d="M226.19,77.05c-1.62-1.08-2.43-2.61-2.43-4.6,0-.2,.02-.49,.07-.88h6.05c-.07,.83,.14,1.48,.61,1.96s1.2,.72,2.18,.72c.88,0,1.58-.18,2.09-.56,.51-.37,.77-.89,.77-1.57s-.32-1.27-.97-1.7-1.65-.93-3.01-1.47c-1.32-.52-2.39-1.02-3.21-1.49-.83-.47-1.55-1.11-2.16-1.91-.61-.81-.92-1.82-.92-3.04-.02-1.51,.36-2.81,1.16-3.93s1.89-1.96,3.3-2.55c1.41-.59,3.02-.88,4.83-.88,1.63,0,3.08,.24,4.35,.74,1.27,.49,2.26,1.2,2.96,2.13,.7,.93,1.05,2.02,1.05,3.29,0,.33-.01,.57-.03,.72h-6.19c.02-.09,.03-.22,.03-.39,0-.61-.22-1.11-.66-1.49s-1.05-.57-1.82-.57c-.82,0-1.48,.19-1.99,.57s-.77,.9-.77,1.55,.32,1.2,.95,1.65c.63,.45,1.62,.97,2.96,1.55s2.43,1.13,3.28,1.64c.85,.5,1.58,1.17,2.19,2.01,.61,.84,.92,1.87,.92,3.09,0,1.35-.37,2.56-1.12,3.63-.75,1.07-1.83,1.9-3.23,2.5-1.41,.6-3.05,.9-4.93,.9-2.58,0-4.69-.54-6.31-1.62Z"/><path class="cls-1" d="M264.08,55.47l-.78,4.42h-6.36l-3.4,18.55h-5.82l3.4-18.55h-6.33l.82-4.42h18.47Z"/><path class="cls-1" d="M282.25,57.09c1.29,1.08,1.94,2.48,1.94,4.2,0,.5-.05,.97-.14,1.41-.27,1.53-.96,2.89-2.07,4.09-1.11,1.2-2.6,2.05-4.46,2.55l3.84,9.1h-6.56l-3.37-8.67h-1.39l-1.6,8.67h-5.82l4.22-22.97h9.76c2.47,0,4.35,.54,5.65,1.62Zm-4.08,5.15c0-.7-.23-1.24-.7-1.62s-1.15-.57-2.06-.57h-3.61l-1.05,5.76h3.61c1.07,0,1.91-.25,2.53-.75,.62-.5,1.03-1.21,1.21-2.13,.05-.35,.07-.58,.07-.69Z"/><path class="cls-1" d="M294.26,55.47l-4.22,22.97h-5.82l4.22-22.97h5.82Z"/><path class="cls-1" d="M313.2,56.6c1.6,.75,2.82,1.81,3.67,3.17,.85,1.36,1.28,2.96,1.28,4.79,0,.63-.08,1.43-.24,2.39-.41,2.25-1.29,4.24-2.64,5.99s-3.06,3.1-5.14,4.06-4.36,1.44-6.85,1.44h-8.94l4.22-22.97h8.94c2.2,0,4.1,.38,5.7,1.13Zm-3.93,15.3c1.45-1.18,2.36-2.82,2.72-4.94,.11-.65,.17-1.2,.17-1.64,0-1.61-.51-2.86-1.53-3.75-1.02-.88-2.47-1.33-4.35-1.33h-2.79l-2.45,13.41h2.75c2.2,0,4.02-.59,5.48-1.77Z"/><path class="cls-1" d="M327.53,59.89l-.85,4.78h7.79l-.78,4.22h-7.79l-.95,5.14h8.81l-.82,4.42h-14.62l4.22-22.97h14.62l-.82,4.42h-8.81Z"/><path class="cls-1" d="M339.05,77.05c-1.62-1.08-2.43-2.61-2.43-4.6,0-.2,.02-.49,.07-.88h6.05c-.07,.83,.14,1.48,.61,1.96s1.2,.72,2.18,.72c.88,0,1.58-.18,2.09-.56,.51-.37,.77-.89,.77-1.57s-.32-1.27-.97-1.7-1.65-.93-3.01-1.47c-1.32-.52-2.39-1.02-3.21-1.49-.83-.47-1.55-1.11-2.16-1.91-.61-.81-.92-1.82-.92-3.04-.02-1.51,.36-2.81,1.16-3.93s1.89-1.96,3.3-2.55c1.41-.59,3.02-.88,4.83-.88,1.63,0,3.08,.24,4.35,.74,1.27,.49,2.26,1.2,2.96,2.13,.7,.93,1.05,2.02,1.05,3.29,0,.33-.01,.57-.03,.72h-6.19c.02-.09,.03-.22,.03-.39,0-.61-.22-1.11-.66-1.49s-1.05-.57-1.82-.57c-.82,0-1.48,.19-1.99,.57s-.77,.9-.77,1.55,.32,1.2,.95,1.65c.63,.45,1.62,.97,2.96,1.55s2.43,1.13,3.28,1.64c.85,.5,1.58,1.17,2.19,2.01,.61,.84,.92,1.87,.92,3.09,0,1.35-.37,2.56-1.12,3.63-.75,1.07-1.83,1.9-3.23,2.5-1.41,.6-3.05,.9-4.93,.9-2.58,0-4.69-.54-6.31-1.62Z"/></g><g><path class="cls-1" d="M219.26,91.87h-3.67l-.9,1.74h-2.51l5.29-9.83h2.77l1.82,9.83h-2.53l-.28-1.74Zm-.28-1.82l-.57-3.64-1.88,3.64h2.45Z"/><path class="cls-1" d="M224.15,86.08c.56-.76,1.25-1.35,2.08-1.78s1.73-.64,2.7-.64c1.18,0,2.12,.28,2.83,.85s1.1,1.36,1.17,2.37h-2.63c-.12-.33-.33-.58-.64-.75-.3-.17-.67-.26-1.11-.26-.78,0-1.44,.25-2,.76-.56,.51-.91,1.19-1.06,2.04-.05,.28-.07,.52-.07,.73,0,.69,.2,1.22,.6,1.6s.97,.56,1.71,.56c.6,0,1.12-.15,1.58-.46,.46-.3,.83-.73,1.11-1.29h-3.02l.29-1.75h5.21l-.39,2.23c-.28,.6-.68,1.15-1.2,1.67-.52,.51-1.13,.93-1.84,1.25s-1.47,.48-2.3,.48-1.59-.17-2.23-.5c-.64-.33-1.13-.8-1.47-1.39-.34-.6-.51-1.29-.51-2.09,0-.27,.03-.61,.1-1.02,.17-.97,.53-1.84,1.08-2.6Z"/><path class="cls-1" d="M239.18,91.87h-3.67l-.9,1.74h-2.51l5.29-9.83h2.77l1.82,9.83h-2.53l-.28-1.74Zm-.28-1.82l-.57-3.64-1.88,3.64h2.45Z"/><path class="cls-1" d="M247.01,83.78l-1.74,9.83h-2.39l1.74-9.83h2.39Z"/><path class="cls-1" d="M255.94,93.6h-2.39l-2.93-6.06-1.08,6.06h-2.39l1.74-9.83h2.39l2.93,6.09,1.08-6.09h2.39l-1.74,9.83Z"/><path class="cls-1" d="M258.95,93.01c-.67-.46-1-1.12-1-1.97,0-.08,0-.21,.03-.38h2.49c-.03,.35,.06,.63,.25,.84,.2,.21,.49,.31,.9,.31,.36,0,.65-.08,.86-.24,.21-.16,.31-.38,.31-.67s-.13-.54-.4-.73c-.27-.19-.68-.4-1.24-.63-.54-.22-.98-.44-1.32-.64-.34-.2-.64-.47-.89-.82s-.38-.78-.38-1.3c0-.64,.15-1.2,.48-1.68,.33-.48,.78-.84,1.36-1.09,.58-.25,1.24-.38,1.99-.38,.67,0,1.27,.11,1.79,.32,.52,.21,.93,.51,1.22,.91,.29,.4,.43,.87,.43,1.41,0,.14,0,.24-.01,.31h-2.55s.01-.09,.01-.17c0-.26-.09-.47-.27-.64-.18-.16-.43-.25-.75-.25-.34,0-.61,.08-.82,.25-.21,.16-.32,.38-.32,.67s.13,.52,.39,.71c.26,.19,.67,.41,1.22,.67s1,.49,1.35,.7c.35,.21,.65,.5,.9,.86s.38,.8,.38,1.32c0,.58-.15,1.1-.46,1.55-.31,.46-.75,.81-1.33,1.07-.58,.26-1.25,.39-2.03,.39-1.06,0-1.93-.23-2.6-.69Z"/><path class="cls-1" d="M274.8,83.78l-.32,1.89h-2.62l-1.4,7.94h-2.39l1.4-7.94h-2.6l.34-1.89h7.6Z"/><path class="cls-1" d="M285.14,87.77c-.37,.38-.82,.65-1.34,.8,.47,.1,.83,.33,1.11,.69,.27,.35,.41,.77,.41,1.25,0,.15-.01,.29-.04,.43-.14,.82-.54,1.47-1.2,1.95-.66,.48-1.51,.72-2.53,.72h-4.58l1.74-9.83h4.42c.89,0,1.57,.18,2.06,.55,.49,.36,.73,.87,.73,1.51,0,.16-.01,.32-.04,.49-.1,.58-.34,1.06-.71,1.44Zm-2.23,2.59c0-.27-.1-.48-.29-.64-.2-.15-.47-.23-.81-.23h-1.74l-.39,2.21h1.76c.41,0,.74-.09,.98-.28,.24-.19,.4-.46,.46-.81,.02-.11,.03-.2,.03-.25Zm-.01-2.86c.24-.18,.39-.43,.45-.77,0-.06,.01-.13,.01-.22,0-.27-.09-.48-.27-.62-.18-.14-.44-.22-.78-.22h-1.57l-.36,2.1h1.55c.4,0,.72-.09,.97-.27Z"/><path class="cls-1" d="M294.29,84.47c.53,.46,.8,1.06,.8,1.8,0,.21-.02,.42-.06,.6-.11,.65-.4,1.24-.85,1.75-.46,.51-1.07,.88-1.83,1.09l1.58,3.89h-2.7l-1.39-3.71h-.57l-.66,3.71h-2.39l1.74-9.83h4.02c1.02,0,1.79,.23,2.32,.69Zm-1.68,2.21c0-.3-.1-.53-.29-.69-.19-.16-.47-.25-.85-.25h-1.48l-.43,2.46h1.48c.44,0,.79-.11,1.04-.32,.26-.21,.42-.52,.5-.91,.02-.15,.03-.25,.03-.29Z"/><path class="cls-1" d="M299.04,85.67l-.35,2.04h3.21l-.32,1.81h-3.21l-.39,2.2h3.63l-.34,1.89h-6.02l1.74-9.83h6.02l-.34,1.89h-3.63Z"/><path class="cls-1" d="M309.17,91.87h-3.67l-.9,1.74h-2.51l5.29-9.83h2.77l1.82,9.83h-2.53l-.28-1.74Zm-.28-1.82l-.57-3.64-1.88,3.64h2.45Z"/><path class="cls-1" d="M313.85,93.01c-.67-.46-1-1.12-1-1.97,0-.08,0-.21,.03-.38h2.49c-.03,.35,.06,.63,.25,.84,.2,.21,.49,.31,.9,.31,.36,0,.65-.08,.86-.24,.21-.16,.31-.38,.31-.67s-.13-.54-.4-.73c-.27-.19-.68-.4-1.24-.63-.54-.22-.98-.44-1.32-.64-.34-.2-.64-.47-.89-.82s-.38-.78-.38-1.3c0-.64,.15-1.2,.48-1.68,.33-.48,.78-.84,1.36-1.09,.58-.25,1.24-.38,1.99-.38,.67,0,1.27,.11,1.79,.32,.52,.21,.93,.51,1.22,.91,.29,.4,.43,.87,.43,1.41,0,.14,0,.24-.01,.31h-2.55s.01-.09,.01-.17c0-.26-.09-.47-.27-.64-.18-.16-.43-.25-.75-.25-.34,0-.61,.08-.82,.25-.21,.16-.32,.38-.32,.67s.13,.52,.39,.71c.26,.19,.67,.41,1.22,.67s1,.49,1.35,.7c.35,.21,.65,.5,.9,.86s.38,.8,.38,1.32c0,.58-.15,1.1-.46,1.55-.31,.46-.75,.81-1.33,1.07-.58,.26-1.25,.39-2.03,.39-1.06,0-1.93-.23-2.6-.69Z"/><path class="cls-1" d="M329.7,83.78l-.32,1.89h-2.62l-1.4,7.94h-2.39l1.4-7.94h-2.6l.34-1.89h7.6Z"/><path class="cls-1" d="M333.4,86.08c.56-.76,1.24-1.35,2.07-1.78s1.71-.64,2.66-.64c1.17,0,2.11,.31,2.83,.92,.72,.62,1.13,1.46,1.22,2.52h-2.63c-.12-.4-.34-.71-.67-.92s-.72-.31-1.18-.31c-.74,0-1.38,.25-1.92,.76-.54,.51-.89,1.19-1.04,2.04-.05,.26-.07,.49-.07,.69,0,.65,.18,1.17,.55,1.55s.86,.57,1.5,.57c.46,0,.88-.11,1.28-.32,.4-.21,.73-.52,1-.92h2.63c-.47,1.06-1.17,1.9-2.11,2.51s-2,.92-3.16,.92c-.84,0-1.57-.16-2.2-.49-.62-.33-1.11-.79-1.44-1.39s-.5-1.29-.5-2.09c0-.35,.03-.7,.1-1.04,.17-.97,.53-1.84,1.08-2.6Z"/><path class="cls-1" d="M348.37,91.87h-3.67l-.9,1.74h-2.51l5.29-9.83h2.77l1.82,9.83h-2.53l-.28-1.74Zm-.28-1.82l-.57-3.64-1.88,3.64h2.45Z"/><path class="cls-1" d="M360.86,93.6h-2.39l-2.93-6.06-1.08,6.06h-2.39l1.74-9.83h2.39l2.93,6.09,1.08-6.09h2.39l-1.74,9.83Z"/><path class="cls-1" d="M364.09,86.08c.56-.76,1.24-1.35,2.07-1.78s1.71-.64,2.66-.64c1.17,0,2.11,.31,2.83,.92,.72,.62,1.13,1.46,1.22,2.52h-2.63c-.12-.4-.34-.71-.67-.92s-.72-.31-1.18-.31c-.74,0-1.38,.25-1.92,.76-.54,.51-.89,1.19-1.04,2.04-.05,.26-.07,.49-.07,.69,0,.65,.18,1.17,.55,1.55s.86,.57,1.5,.57c.46,0,.88-.11,1.28-.32,.4-.21,.73-.52,1-.92h2.63c-.47,1.06-1.17,1.9-2.11,2.51s-2,.92-3.16,.92c-.84,0-1.57-.16-2.2-.49-.62-.33-1.11-.79-1.44-1.39s-.5-1.29-.5-2.09c0-.35,.03-.7,.1-1.04,.17-.97,.53-1.84,1.08-2.6Z"/><path class="cls-1" d="M376.83,85.67l-.35,2.04h3.21l-.32,1.81h-3.21l-.39,2.2h3.63l-.34,1.89h-6.02l1.74-9.83h6.02l-.34,1.89h-3.63Z"/><path class="cls-1" d="M388.75,84.47c.53,.46,.8,1.06,.8,1.8,0,.21-.02,.42-.06,.6-.11,.65-.4,1.24-.85,1.75-.46,.51-1.07,.88-1.83,1.09l1.58,3.89h-2.7l-1.39-3.71h-.57l-.66,3.71h-2.39l1.74-9.83h4.02c1.02,0,1.79,.23,2.32,.69Zm-1.68,2.21c0-.3-.1-.53-.29-.69-.19-.16-.47-.25-.85-.25h-1.48l-.43,2.46h1.48c.44,0,.79-.11,1.04-.32,.26-.21,.42-.52,.5-.91,.02-.15,.03-.25,.03-.29Z"/><path class="cls-1" d="M394.98,83.7c.43,.24,.76,.58,1,1,.24,.43,.36,.91,.36,1.45s-.12,1.02-.36,1.45c-.24,.43-.57,.76-1,1.01-.43,.24-.91,.36-1.45,.36s-1.02-.12-1.45-.36c-.43-.24-.76-.58-1.01-1.01-.24-.43-.36-.91-.36-1.45s.12-1.02,.36-1.45c.24-.43,.58-.76,1.01-1,.43-.24,.91-.37,1.45-.37s1.02,.12,1.45,.37Zm.11,4.05c.39-.41,.59-.94,.59-1.59s-.2-1.19-.59-1.59c-.39-.4-.91-.61-1.56-.61s-1.18,.2-1.57,.61c-.39,.41-.58,.94-.58,1.59s.19,1.19,.58,1.59c.39,.4,.91,.61,1.57,.61s1.17-.2,1.56-.61Zm-.47-1.61c-.1,.15-.23,.26-.41,.33l.72,1.11h-1.03l-.59-1.01h-.09v1.01h-.85v-2.9h1.36c.31,0,.57,.09,.76,.26,.19,.18,.28,.4,.28,.68,0,.2-.05,.37-.15,.52Zm-1.4-.26h.46c.07,0,.13-.02,.18-.06,.05-.04,.07-.1,.07-.17s-.02-.13-.07-.16c-.05-.04-.11-.05-.18-.05h-.46v.45Z"/></g></svg>